<svg id="Camada_1" data-name="Camada 1" xmlns="http://www.w3.org/2000/svg" viewBox="0 0 199.5 69.74"><defs><style>.cls-1{fill:#ededed;}</style></defs><title>ALTSIDE</title><path class="cls-1" d="M112.69,22.34h-8.6l.18-2.12a10.25,10.25,0,0,0-.92-5.58q-1.2-2.35-4.48-2.35a5.57,5.57,0,0,0-3,.74A5.91,5.91,0,0,0,94,14.91a9.08,9.08,0,0,0-1.11,2.67,20,20,0,0,0-.52,3.18q-.16,1.94-.14,3.28a5.9,5.9,0,0,0,.44,2.31A4.54,4.54,0,0,0,94,28.06a11.71,11.71,0,0,0,2.53,1.47l6.33,2.86a14.29,14.29,0,0,1,4.4,2.81A10.12,10.12,0,0,1,109.65,39a16.34,16.34,0,0,1,.89,5,54.37,54.37,0,0,1-.2,6.41,38.27,38.27,0,0,1-1.4,7.7,18.7,18.7,0,0,1-3,6.09,13.75,13.75,0,0,1-4.92,4,15.83,15.83,0,0,1-7.09,1.48,13.39,13.39,0,0,1-5.7-1.2,12.5,12.5,0,0,1-4.35-3.27,14,14,0,0,1-2.66-4.94,16,16,0,0,1-.63-6.18l.29-3.51h8.58l-.25,3a7.73,7.73,0,0,0,1,4.66q1.21,2.08,4.49,2.08a7.29,7.29,0,0,0,3.46-.69,5.13,5.13,0,0,0,2-1.94,9.15,9.15,0,0,0,1.06-3.09q.32-1.84.51-4.06.21-2.58.18-4.24a6.85,6.85,0,0,0-.49-2.67,4.09,4.09,0,0,0-1.38-1.66,17.72,17.72,0,0,0-2.45-1.38L91.7,37.74q-5.35-2.49-6.91-6.6a23.7,23.7,0,0,1-1.05-10.29,27,27,0,0,1,1.5-7,18.69,18.69,0,0,1,3.21-5.72A15,15,0,0,1,93.37,4.3,14.78,14.78,0,0,1,100,2.87a12.56,12.56,0,0,1,5.76,1.29A13,13,0,0,1,110,7.58a13.78,13.78,0,0,1,2.51,4.75,14.39,14.39,0,0,1,.56,5.4Z"/><polygon class="cls-1" points="120.94 3.43 129.55 3.43 123.97 69.11 115.4 69.11 120.94 3.43"/><path class="cls-1" d="M137.9,3.43h12.74q7.34,0,10.83,4.47t2.79,12.5l-2.69,30.72q-.81,9.23-5.27,13.61t-12.1,4.38H132.28Zm3.71,56.83h4q3.61,0,5.3-2T152.92,52l2.75-31.64a10.14,10.14,0,0,0-.91-6q-1.25-2.12-5-2.12h-4Z"/><polygon class="cls-1" points="173.85 3.43 199.5 3.43 198.7 12.28 181.67 12.28 179.96 31.56 194.78 31.56 193.99 40.42 179.18 40.42 177.47 59.7 194.44 59.7 193.6 69.11 168.06 69.11 173.85 3.43"/><path class="cls-1" d="M10.76,45.2,4.26,69.11H0C1.94,64,16.08,9.06,18.26,3.32h5.9l7.61,65.79H27.4L24.81,45.2Zm13.57-3.86c-2-17.41-3.27-29.27-3.44-34.25h-.21c-.88,4.92-4.92,19.65-8.86,34.25Z"/><polygon class="cls-1" points="40.32 69.11 45.89 3.37 50.05 3.37 44.49 69.11 40.32 69.11"/><path class="cls-1" d="M55,23.31h6.41L62.59,7.19l4.23-2.33L65.54,23.31h8l-.32,3.78h-8L62.15,60c-.34,3.48.21,6,3.69,6a20.06,20.06,0,0,0,3.78-.38l-.31,3.48a15.71,15.71,0,0,1-4.76.59c-4.06,0-7.17-2.09-6.58-8.84l3.15-33.81H54.72Z"/></svg>