<svg id="Camada_1" data-name="Camada 1" xmlns="http://www.w3.org/2000/svg" viewBox="0 0 199.5 195.74"><defs><style>.cls-1{fill:#fff;}</style></defs><title>LOGO-3</title><path class="cls-1" d="M105.39,35.06a12.19,12.19,0,1,0,12.19-12.19,12.2,12.2,0,0,0-12.19,12.19"/><path class="cls-1" d="M128.44,81.55c-4.21-6.71-10.06-8.09-21.57-5.09-7.27,1.9-12.93,2.36-17.29,1.41a15.6,15.6,0,0,1-10.25-7.41A16.89,16.89,0,0,1,77.63,56c1.65-5,5.51-9.63,10.88-13a37.39,37.39,0,0,1,11.65-5A17.64,17.64,0,0,1,110,19.12L100.52.47A.87.87,0,0,0,99,.47l-52.68,104a.87.87,0,0,0,.77,1.26h63.09c3.8-.56,7.54-1.37,9.9-2.9,8.2-5.35,12.94-14.06,8.39-21.31"/><path class="cls-1" d="M153.21,104.51,125.92,50.63A17.65,17.65,0,0,1,102,43.42a29.91,29.91,0,0,0-10.88,4.28c-4.72,3-7.24,6.58-8.14,10.53a10.56,10.56,0,0,0,1.36,8.33c3.79,6,9.39,7.34,20.77,4.39,12.65-3.22,21.77-3.18,28.14,7a18.47,18.47,0,0,1,2.32,14.66,26.59,26.59,0,0,1-8.4,13.2h25.24a.87.87,0,0,0,.77-1.26"/><path class="cls-1" d="M112.69,148.93h-8.6l.18-2.12a10.25,10.25,0,0,0-.92-5.58q-1.2-2.35-4.48-2.35a5.57,5.57,0,0,0-3,.74A5.91,5.91,0,0,0,94,141.5a9.08,9.08,0,0,0-1.11,2.67,20,20,0,0,0-.52,3.18q-.16,1.94-.14,3.28a5.9,5.9,0,0,0,.44,2.31A4.54,4.54,0,0,0,94,154.65a11.71,11.71,0,0,0,2.53,1.47l6.33,2.86a14.29,14.29,0,0,1,4.4,2.81,10.12,10.12,0,0,1,2.42,3.78,16.34,16.34,0,0,1,.89,5,54.37,54.37,0,0,1-.2,6.41,38.27,38.27,0,0,1-1.4,7.7,18.7,18.7,0,0,1-3,6.09,13.75,13.75,0,0,1-4.92,4,15.83,15.83,0,0,1-7.09,1.48,13.39,13.39,0,0,1-5.7-1.2,12.5,12.5,0,0,1-4.35-3.27,14,14,0,0,1-2.66-4.94,16,16,0,0,1-.63-6.18l.29-3.51h8.58l-.25,3a7.73,7.73,0,0,0,1,4.66q1.21,2.08,4.49,2.08a7.29,7.29,0,0,0,3.46-.69,5.13,5.13,0,0,0,2-1.94,9.15,9.15,0,0,0,1.06-3.09q.32-1.84.51-4.06.21-2.58.18-4.24a6.85,6.85,0,0,0-.49-2.67,4.09,4.09,0,0,0-1.38-1.66,17.72,17.72,0,0,0-2.45-1.38l-5.91-2.77q-5.35-2.49-6.91-6.6a23.7,23.7,0,0,1-1.05-10.29,27,27,0,0,1,1.5-7,18.69,18.69,0,0,1,3.21-5.72,15,15,0,0,1,4.91-3.83,14.78,14.78,0,0,1,6.62-1.43,12.56,12.56,0,0,1,5.76,1.29,13,13,0,0,1,4.27,3.41,13.78,13.78,0,0,1,2.51,4.75,14.39,14.39,0,0,1,.56,5.4Z"/><polygon class="cls-1" points="120.94 130.02 129.55 130.02 123.97 195.7 115.4 195.7 120.94 130.02"/><path class="cls-1" d="M137.9,130h12.74q7.34,0,10.83,4.47t2.79,12.5l-2.69,30.72q-.81,9.23-5.27,13.61t-12.1,4.38H132.28Zm3.71,56.83h4q3.61,0,5.3-2t2.05-6.23L155.67,147a10.14,10.14,0,0,0-.91-6q-1.25-2.12-5-2.12h-4Z"/><polygon class="cls-1" points="173.85 130.02 199.5 130.02 198.7 138.88 181.67 138.88 179.96 158.16 194.78 158.16 193.99 167.01 179.18 167.01 177.47 186.29 194.44 186.29 193.6 195.7 168.06 195.7 173.85 130.02"/><path class="cls-1" d="M10.76,171.8,4.26,195.7H0c1.94-5.13,16.08-60.05,18.26-65.79h5.9l7.61,65.79H27.4L24.81,171.8Zm13.57-3.86c-2-17.41-3.27-29.27-3.44-34.25h-.21c-.88,4.92-4.92,19.65-8.86,34.25Z"/><polygon class="cls-1" points="40.32 195.7 45.89 129.96 50.05 129.96 44.49 195.7 40.32 195.7"/><path class="cls-1" d="M55,149.9h6.41l1.15-16.12,4.23-2.33L65.54,149.9h8l-.32,3.78h-8l-3.07,32.91c-.34,3.48.21,6,3.69,6a20.06,20.06,0,0,0,3.78-.38l-.31,3.48a15.71,15.71,0,0,1-4.76.59c-4.06,0-7.17-2.09-6.58-8.84l3.15-33.81H54.72Z"/></svg>